# Blender 4.2.0
# www.blender.org
o Cylinder
v -0.001329 -0.000000 -0.112000
v 0.998671 0.000000 -0.112000
v -0.001329 -0.021850 -0.109848
v 0.998671 -0.021850 -0.109848
v -0.001329 -0.042861 -0.103474
v 0.998671 -0.042861 -0.103474
v -0.001329 -0.062224 -0.093125
v 0.998671 -0.062224 -0.093125
v -0.001329 -0.079196 -0.079196
v 0.998671 -0.079196 -0.079196
v -0.001329 -0.093125 -0.062224
v 0.998671 -0.093125 -0.062224
v -0.001329 -0.103475 -0.042861
v 0.998671 -0.103474 -0.042861
v -0.001329 -0.109848 -0.021850
v 0.998671 -0.109848 -0.021850
v -0.001329 -0.112000 0.000000
v 0.998671 -0.112000 0.000000
v -0.001329 -0.109848 0.021850
v 0.998671 -0.109848 0.021850
v -0.001329 -0.103475 0.042861
v 0.998671 -0.103474 0.042861
v -0.001329 -0.093125 0.062224
v 0.998671 -0.093125 0.062224
v -0.001329 -0.079196 0.079196
v 0.998671 -0.079196 0.079196
v -0.001329 -0.062224 0.093125
v 0.998671 -0.062224 0.093125
v -0.001329 -0.042861 0.103474
v 0.998671 -0.042861 0.103474
v -0.001329 -0.021850 0.109848
v 0.998671 -0.021850 0.109848
v -0.001329 -0.000000 0.112000
v 0.998671 0.000000 0.112000
v -0.001329 0.021850 0.109848
v 0.998671 0.021850 0.109848
v -0.001329 0.042861 0.103474
v 0.998671 0.042861 0.103474
v -0.001329 0.062224 0.093125
v 0.998671 0.062224 0.093125
v -0.001329 0.079196 0.079196
v 0.998671 0.079196 0.079196
v -0.001329 0.093125 0.062224
v 0.998671 0.093125 0.062224
v -0.001329 0.103474 0.042861
v 0.998671 0.103475 0.042861
v -0.001329 0.109848 0.021850
v 0.998671 0.109848 0.021850
v -0.001329 0.112000 0.000000
v 0.998671 0.112000 0.000000
v -0.001329 0.109848 -0.021850
v 0.998671 0.109848 -0.021850
v -0.001329 0.103474 -0.042861
v 0.998671 0.103475 -0.042861
v -0.001329 0.093125 -0.062224
v 0.998671 0.093125 -0.062224
v -0.001329 0.079196 -0.079196
v 0.998671 0.079196 -0.079196
v -0.001329 0.062224 -0.093125
v 0.998671 0.062224 -0.093125
v -0.001329 0.042861 -0.103474
v 0.998671 0.042861 -0.103474
v -0.001329 0.021850 -0.109848
v 0.998671 0.021850 -0.109848
vn -0.0000 -0.0980 -0.9952
vn -0.0000 -0.2903 -0.9569
vn -0.0000 -0.4714 -0.8819
vn -0.0000 -0.6344 -0.7730
vn -0.0000 -0.7730 -0.6344
vn -0.0000 -0.8819 -0.4714
vn -0.0000 -0.9569 -0.2903
vn -0.0000 -0.9952 -0.0980
vn -0.0000 -0.9952 0.0980
vn -0.0000 -0.9569 0.2903
vn -0.0000 -0.8819 0.4714
vn -0.0000 -0.7730 0.6344
vn -0.0000 -0.6344 0.7730
vn -0.0000 -0.4714 0.8819
vn -0.0000 -0.2903 0.9569
vn -0.0000 -0.0980 0.9952
vn -0.0000 0.0980 0.9952
vn -0.0000 0.2903 0.9569
vn -0.0000 0.4714 0.8819
vn -0.0000 0.6344 0.7730
vn -0.0000 0.7730 0.6344
vn -0.0000 0.8819 0.4714
vn -0.0000 0.9569 0.2903
vn -0.0000 0.9952 0.0980
vn -0.0000 0.9952 -0.0980
vn -0.0000 0.9569 -0.2903
vn -0.0000 0.8819 -0.4714
vn -0.0000 0.7730 -0.6344
vn -0.0000 0.6344 -0.7730
vn -0.0000 0.4714 -0.8819
vn -0.0000 0.2903 -0.9569
vn -0.0000 0.0980 -0.9952
vn -1.0000 -0.0000 -0.0000
vt 1.000000 0.500000
vt 1.000000 1.000000
vt 0.968750 1.000000
vt 0.968750 0.500000
vt 0.937500 1.000000
vt 0.937500 0.500000
vt 0.906250 1.000000
vt 0.906250 0.500000
vt 0.875000 1.000000
vt 0.875000 0.500000
vt 0.843750 1.000000
vt 0.843750 0.500000
vt 0.812500 1.000000
vt 0.812500 0.500000
vt 0.781250 1.000000
vt 0.781250 0.500000
vt 0.750000 1.000000
vt 0.750000 0.500000
vt 0.718750 1.000000
vt 0.718750 0.500000
vt 0.687500 1.000000
vt 0.687500 0.500000
vt 0.656250 1.000000
vt 0.656250 0.500000
vt 0.625000 1.000000
vt 0.625000 0.500000
vt 0.593750 1.000000
vt 0.593750 0.500000
vt 0.562500 1.000000
vt 0.562500 0.500000
vt 0.531250 1.000000
vt 0.531250 0.500000
vt 0.500000 1.000000
vt 0.500000 0.500000
vt 0.468750 1.000000
vt 0.468750 0.500000
vt 0.437500 1.000000
vt 0.437500 0.500000
vt 0.406250 1.000000
vt 0.406250 0.500000
vt 0.375000 1.000000
vt 0.375000 0.500000
vt 0.343750 1.000000
vt 0.343750 0.500000
vt 0.312500 1.000000
vt 0.312500 0.500000
vt 0.281250 1.000000
vt 0.281250 0.500000
vt 0.250000 1.000000
vt 0.250000 0.500000
vt 0.218750 1.000000
vt 0.218750 0.500000
vt 0.187500 1.000000
vt 0.187500 0.500000
vt 0.156250 1.000000
vt 0.156250 0.500000
vt 0.125000 1.000000
vt 0.125000 0.500000
vt 0.093750 1.000000
vt 0.093750 0.500000
vt 0.062500 1.000000
vt 0.062500 0.500000
vt 0.031250 1.000000
vt 0.031250 0.500000
vt 0.000000 1.000000
vt 0.000000 0.500000
vt 0.750000 0.490000
vt 0.796822 0.485388
vt 0.841844 0.471731
vt 0.883337 0.449553
vt 0.919706 0.419706
vt 0.949553 0.383337
vt 0.971731 0.341844
vt 0.985388 0.296822
vt 0.990000 0.250000
vt 0.985388 0.203178
vt 0.971731 0.158156
vt 0.949553 0.116663
vt 0.919706 0.080294
vt 0.883337 0.050447
vt 0.841844 0.028269
vt 0.796822 0.014612
vt 0.750000 0.010000
vt 0.703178 0.014612
vt 0.658156 0.028269
vt 0.616663 0.050447
vt 0.580294 0.080294
vt 0.550447 0.116663
vt 0.528269 0.158156
vt 0.514612 0.203178
vt 0.510000 0.250000
vt 0.514612 0.296822
vt 0.528269 0.341844
vt 0.550447 0.383337
vt 0.580294 0.419706
vt 0.616663 0.449553
vt 0.658156 0.471731
vt 0.703178 0.485388
s 0
f 1/1/1 2/2/1 4/3/1 3/4/1
f 3/4/2 4/3/2 6/5/2 5/6/2
f 5/6/3 6/5/3 8/7/3 7/8/3
f 7/8/4 8/7/4 10/9/4 9/10/4
f 9/10/5 10/9/5 12/11/5 11/12/5
f 11/12/6 12/11/6 14/13/6 13/14/6
f 13/14/7 14/13/7 16/15/7 15/16/7
f 15/16/8 16/15/8 18/17/8 17/18/8
f 17/18/9 18/17/9 20/19/9 19/20/9
f 19/20/10 20/19/10 22/21/10 21/22/10
f 21/22/11 22/21/11 24/23/11 23/24/11
f 23/24/12 24/23/12 26/25/12 25/26/12
f 25/26/13 26/25/13 28/27/13 27/28/13
f 27/28/14 28/27/14 30/29/14 29/30/14
f 29/30/15 30/29/15 32/31/15 31/32/15
f 31/32/16 32/31/16 34/33/16 33/34/16
f 33/34/17 34/33/17 36/35/17 35/36/17
f 35/36/18 36/35/18 38/37/18 37/38/18
f 37/38/19 38/37/19 40/39/19 39/40/19
f 39/40/20 40/39/20 42/41/20 41/42/20
f 41/42/21 42/41/21 44/43/21 43/44/21
f 43/44/22 44/43/22 46/45/22 45/46/22
f 45/46/23 46/45/23 48/47/23 47/48/23
f 47/48/24 48/47/24 50/49/24 49/50/24
f 49/50/25 50/49/25 52/51/25 51/52/25
f 51/52/26 52/51/26 54/53/26 53/54/26
f 53/54/27 54/53/27 56/55/27 55/56/27
f 55/56/28 56/55/28 58/57/28 57/58/28
f 57/58/29 58/57/29 60/59/29 59/60/29
f 59/60/30 60/59/30 62/61/30 61/62/30
f 61/62/31 62/61/31 64/63/31 63/64/31
f 63/64/32 64/63/32 2/65/32 1/66/32
f 1/67/33 3/68/33 5/69/33 7/70/33 9/71/33 11/72/33 13/73/33 15/74/33 17/75/33 19/76/33 21/77/33 23/78/33 25/79/33 27/80/33 29/81/33 31/82/33 33/83/33 35/84/33 37/85/33 39/86/33 41/87/33 43/88/33 45/89/33 47/90/33 49/91/33 51/92/33 53/93/33 55/94/33 57/95/33 59/96/33 61/97/33 63/98/33
o Cone
v 0.989391 -0.000000 -0.274304
v 0.989391 -0.053514 -0.269034
v 0.989391 -0.104972 -0.253424
v 0.989391 -0.152395 -0.228076
v 0.989391 -0.193963 -0.193962
v 0.989391 -0.228076 -0.152395
v 0.989391 -0.253424 -0.104972
v 0.989391 -0.269034 -0.053514
v 0.989391 -0.274304 0.000000
v 0.989391 -0.269034 0.053514
v 0.989391 -0.253424 0.104972
v 0.989391 -0.228076 0.152395
v 0.989391 -0.193963 0.193962
v 0.989391 -0.152395 0.228076
v 0.989391 -0.104972 0.253424
v 0.989391 -0.053514 0.269034
v 0.989391 -0.000000 0.274304
v 0.989391 0.053514 0.269034
v 0.989391 0.104972 0.253424
v 0.989391 0.152395 0.228076
v 0.989391 0.193962 0.193962
v 0.989391 0.228076 0.152395
v 0.989391 0.253424 0.104972
v 0.989391 0.269034 0.053514
v 0.989391 0.274304 0.000000
v 0.989391 0.269034 -0.053514
v 0.989391 0.253424 -0.104972
v 0.989391 0.228076 -0.152395
v 0.989391 0.193962 -0.193962
v 0.989391 0.152395 -0.228076
v 0.989391 0.104972 -0.253424
v 0.989391 0.053514 -0.269034
v 1.589391 0.000000 0.000000
vn 0.4141 -0.0892 -0.9058
vn 0.4141 -0.2642 -0.8710
vn 0.4141 -0.4291 -0.8027
vn 0.4141 -0.5774 -0.7036
vn 0.4141 -0.7036 -0.5774
vn 0.4141 -0.8027 -0.4291
vn 0.4141 -0.8710 -0.2642
vn 0.4141 -0.9058 -0.0892
vn 0.4141 -0.9058 0.0892
vn 0.4141 -0.8710 0.2642
vn 0.4141 -0.8027 0.4291
vn 0.4141 -0.7036 0.5774
vn 0.4141 -0.5774 0.7036
vn 0.4141 -0.4291 0.8027
vn 0.4141 -0.2642 0.8710
vn 0.4141 -0.0892 0.9058
vn 0.4141 0.0892 0.9058
vn 0.4141 0.2642 0.8710
vn 0.4141 0.4291 0.8027
vn 0.4141 0.5774 0.7036
vn 0.4141 0.7036 0.5774
vn 0.4141 0.8027 0.4291
vn 0.4141 0.8710 0.2642
vn 0.4141 0.9058 0.0892
vn 0.4141 0.9058 -0.0892
vn 0.4141 0.8710 -0.2642
vn 0.4141 0.8027 -0.4291
vn 0.4141 0.7036 -0.5774
vn 0.4141 0.5774 -0.7036
vn 0.4141 0.4291 -0.8027
vn -1.0000 -0.0000 -0.0000
vn 0.4141 0.2642 -0.8710
vn 0.4141 0.0892 -0.9058
vt 0.250000 0.490000
vt 0.250000 0.250000
vt 0.296822 0.485388
vt 0.341844 0.471731
vt 0.383337 0.449553
vt 0.419706 0.419706
vt 0.449553 0.383337
vt 0.471731 0.341844
vt 0.485388 0.296822
vt 0.490000 0.250000
vt 0.485388 0.203178
vt 0.471731 0.158156
vt 0.449553 0.116663
vt 0.419706 0.080294
vt 0.383337 0.050447
vt 0.341844 0.028269
vt 0.296822 0.014612
vt 0.250000 0.010000
vt 0.203178 0.014612
vt 0.158156 0.028269
vt 0.116663 0.050447
vt 0.080294 0.080294
vt 0.050447 0.116663
vt 0.028269 0.158156
vt 0.014612 0.203178
vt 0.010000 0.250000
vt 0.014612 0.296822
vt 0.028269 0.341844
vt 0.050447 0.383337
vt 0.080294 0.419706
vt 0.116663 0.449553
vt 0.158156 0.471731
vt 0.750000 0.490000
vt 0.796822 0.485388
vt 0.841844 0.471731
vt 0.883337 0.449553
vt 0.919706 0.419706
vt 0.949553 0.383337
vt 0.971731 0.341844
vt 0.985388 0.296822
vt 0.990000 0.250000
vt 0.985388 0.203178
vt 0.971731 0.158156
vt 0.949553 0.116663
vt 0.919706 0.080294
vt 0.883337 0.050447
vt 0.841844 0.028269
vt 0.796822 0.014612
vt 0.750000 0.010000
vt 0.703178 0.014612
vt 0.658156 0.028269
vt 0.616663 0.050447
vt 0.580294 0.080294
vt 0.550447 0.116663
vt 0.528269 0.158156
vt 0.514612 0.203178
vt 0.510000 0.250000
vt 0.514612 0.296822
vt 0.528269 0.341844
vt 0.550447 0.383337
vt 0.580294 0.419706
vt 0.616663 0.449553
vt 0.658156 0.471731
vt 0.703178 0.485388
vt 0.203178 0.485388
s 0
f 65/99/34 97/100/34 66/101/34
f 66/101/35 97/100/35 67/102/35
f 67/102/36 97/100/36 68/103/36
f 68/103/37 97/100/37 69/104/37
f 69/104/38 97/100/38 70/105/38
f 70/105/39 97/100/39 71/106/39
f 71/106/40 97/100/40 72/107/40
f 72/107/41 97/100/41 73/108/41
f 73/108/42 97/100/42 74/109/42
f 74/109/43 97/100/43 75/110/43
f 75/110/44 97/100/44 76/111/44
f 76/111/45 97/100/45 77/112/45
f 77/112/46 97/100/46 78/113/46
f 78/113/47 97/100/47 79/114/47
f 79/114/48 97/100/48 80/115/48
f 80/115/49 97/100/49 81/116/49
f 81/116/50 97/100/50 82/117/50
f 82/117/51 97/100/51 83/118/51
f 83/118/52 97/100/52 84/119/52
f 84/119/53 97/100/53 85/120/53
f 85/120/54 97/100/54 86/121/54
f 86/121/55 97/100/55 87/122/55
f 87/122/56 97/100/56 88/123/56
f 88/123/57 97/100/57 89/124/57
f 89/124/58 97/100/58 90/125/58
f 90/125/59 97/100/59 91/126/59
f 91/126/60 97/100/60 92/127/60
f 92/127/61 97/100/61 93/128/61
f 93/128/62 97/100/62 94/129/62
f 94/129/63 97/100/63 95/130/63
f 65/131/64 66/132/64 67/133/64 68/134/64 69/135/64 70/136/64 71/137/64 72/138/64 73/139/64 74/140/64 75/141/64 76/142/64 77/143/64 78/144/64 79/145/64 80/146/64 81/147/64 82/148/64 83/149/64 84/150/64 85/151/64 86/152/64 87/153/64 88/154/64 89/155/64 90/156/64 91/157/64 92/158/64 93/159/64 94/160/64 95/161/64 96/162/64
f 95/130/65 97/100/65 96/163/65
f 96/163/66 97/100/66 65/99/66
